<svg width="32" height="24" viewBox="0 0 32 24" fill="none" xmlns="http://www.w3.org/2000/svg">
<path d="M31.3307 4.52134C31.1499 3.84037 30.7934 3.21885 30.2968 2.71902C29.8003 2.21919 29.1811 1.85859 28.5013 1.67334C26.0067 1 16 1 16 1C16 1 5.99333 1 3.49733 1.67334C2.81788 1.85892 2.19906 2.21965 1.70277 2.71944C1.20648 3.21924 0.850122 3.84059 0.669333 4.52134C0 7.03334 0 12.2733 0 12.2733C0 12.2733 0 17.5133 0.669333 20.0253C0.850115 20.7063 1.20663 21.3278 1.70319 21.8276C2.19974 22.3274 2.8189 22.688 3.49867 22.8733C5.99333 23.5466 16 23.5466 16 23.5466C16 23.5466 26.0067 23.5466 28.5027 22.8733C29.1825 22.6882 29.8017 22.3276 30.2983 21.8278C30.7949 21.3279 31.1513 20.7063 31.332 20.0253C32 17.5133 32 12.2733 32 12.2733C32 12.2733 32 7.03334 31.3307 4.52134ZM12.7267 17.0306V7.51604L21.0907 12.2733L12.7267 17.0306Z" fill="white"/>
</svg>
