<svg width="29" height="26" viewBox="0 0 29 26" fill="none" xmlns="http://www.w3.org/2000/svg">
<path d="M22.4429 7.08725H21.4744L19.4663 1.55919C19.3001 1.10338 18.9981 0.709496 18.6009 0.430692C18.2039 0.151889 17.7308 0.00156805 17.2457 0H15.3557C14.706 0 14.1745 0.531544 14.1745 1.18121C14.1745 1.83088 14.706 2.36242 15.3557 2.36242H17.2457L18.9702 7.08725H13.2886L12.8634 5.90604H12.9697C13.6193 5.90604 14.1508 5.3745 14.1508 4.72484C14.1508 4.07517 13.6193 3.54362 12.9697 3.54362H9.4497C8.8 3.54362 8.26846 4.07517 8.26846 4.72484C8.26846 5.3745 8.8 5.90604 9.4497 5.90604H10.3356L12.4853 11.8121H11.694C11.1742 9.17801 8.96537 7.22899 6.20134 7.09907C2.89396 6.9337 0 9.6859 0 12.9933C0 16.3007 2.59866 18.8993 5.90604 18.8993C8.81182 18.8993 11.1624 16.9031 11.694 14.1745H16.655C17.1748 16.8086 19.3836 18.7576 22.1477 18.8875C25.455 19.0411 28.349 16.3007 28.349 12.9815C28.349 9.6859 25.7504 7.08725 22.4429 7.08725ZM7.08725 14.1745H9.23708C8.74094 15.6274 7.34711 16.6314 5.6698 16.5251C3.9098 16.4188 2.4451 14.9305 2.36242 13.1587C2.27973 11.0916 3.86255 9.44963 5.90604 9.44963C7.47705 9.44963 8.76456 10.4301 9.23708 11.8121H7.08725C6.43759 11.8121 5.90604 12.3436 5.90604 12.9933C5.90604 13.643 6.43759 14.1745 7.08725 14.1745ZM16.655 11.8121H15.0013L14.1391 9.44963H17.7181C17.1984 10.1348 16.8204 10.9262 16.655 11.8121ZM22.3012 16.5369C20.4822 16.466 18.9466 14.9187 18.8993 13.0878C18.8757 11.9538 19.36 10.9616 20.1396 10.3001L20.872 12.3082C21.0964 12.9224 21.7696 13.2413 22.3839 13.0169C22.9981 12.7925 23.3171 12.1192 23.0927 11.5049L22.3485 9.4615L22.3603 9.44963C22.8339 9.43351 23.3058 9.51351 23.7476 9.68484C24.1894 9.85609 24.592 10.1152 24.9308 10.4464C25.2698 10.7776 25.538 11.174 25.7195 11.6118C25.901 12.0495 25.9918 12.5195 25.9866 12.9933C25.9866 15.025 24.3565 16.6078 22.3012 16.5369ZM12.9933 22.443H8.26846L15.3557 25.9866V23.6241H20.0806L12.9933 20.0805V22.443Z" fill="url(#paint0_linear_34_535)"/>
<defs>
<linearGradient id="paint0_linear_34_535" x1="14.1745" y1="0" x2="14.1745" y2="25.9866" gradientUnits="userSpaceOnUse">
<stop stop-color="#FFBF00"/>
<stop offset="1" stop-color="#F2A50C"/>
</linearGradient>
</defs>
</svg>
