<svg width="19" height="25" viewBox="0 0 19 25" fill="none" xmlns="http://www.w3.org/2000/svg">
<path d="M16.5369 8.26846H15.3557V5.90604C15.3557 2.64591 12.7098 0 9.44969 0C6.18955 0 3.54362 2.64591 3.54362 5.90604V8.26846H2.36241C1.06309 8.26846 0 9.33154 0 10.6309V22.443C0 23.7423 1.06309 24.8054 2.36241 24.8054H16.5369C17.8362 24.8054 18.8993 23.7423 18.8993 22.443V10.6309C18.8993 9.33154 17.8362 8.26846 16.5369 8.26846ZM9.44969 18.8993C8.15033 18.8993 7.08724 17.8362 7.08724 16.5369C7.08724 15.2376 8.15033 14.1745 9.44969 14.1745C10.749 14.1745 11.812 15.2376 11.812 16.5369C11.812 17.8362 10.749 18.8993 9.44969 18.8993ZM5.90606 8.26846V5.90604C5.90606 3.94524 7.48882 2.36242 9.44969 2.36242C11.4105 2.36242 12.9933 3.94524 12.9933 5.90604V8.26846H5.90606Z" fill="url(#paint0_linear_34_550)"/>
<defs>
<linearGradient id="paint0_linear_34_550" x1="9.44969" y1="0" x2="9.44969" y2="24.8054" gradientUnits="userSpaceOnUse">
<stop stop-color="#FFBF00"/>
<stop offset="1" stop-color="#F2A50C"/>
</linearGradient>
</defs>
</svg>
