<svg width="26" height="26" viewBox="0 0 26 26" fill="none" xmlns="http://www.w3.org/2000/svg">
<path d="M12.9933 8.26845C10.3828 8.26845 8.26842 10.3828 8.26842 12.9933C8.26842 15.6038 10.3828 17.7182 12.9933 17.7182C15.6037 17.7182 17.7181 15.6038 17.7181 12.9933C17.7181 10.3828 15.6037 8.26845 12.9933 8.26845ZM23.5533 11.8121C23.2858 9.41677 22.2116 7.18356 20.5073 5.47927C18.803 3.77497 16.5698 2.70085 14.1745 2.43329V1.18121C14.1745 0.531544 13.6429 0 12.9933 0C12.3436 0 11.812 0.531544 11.812 1.18121V2.43329C9.41673 2.70085 7.18356 3.77497 5.47926 5.47927C3.77496 7.18356 2.70084 9.41677 2.43328 11.8121H1.18121C0.531544 11.8121 0 12.3436 0 12.9933C0 13.643 0.531544 14.1745 1.18121 14.1745H2.43328C2.70084 16.5698 3.77496 18.803 5.47926 20.5073C7.18356 22.2116 9.41673 23.2857 11.812 23.5533V24.8054C11.812 25.455 12.3436 25.9866 12.9933 25.9866C13.6429 25.9866 14.1745 25.455 14.1745 24.8054V23.5533C16.5698 23.2857 18.803 22.2116 20.5073 20.5073C22.2116 18.803 23.2858 16.5698 23.5533 14.1745H24.8054C25.455 14.1745 25.9865 13.643 25.9865 12.9933C25.9865 12.3436 25.455 11.8121 24.8054 11.8121H23.5533ZM12.9933 21.2618C8.42204 21.2618 4.72483 17.5645 4.72483 12.9933C4.72483 8.42198 8.42204 4.72484 12.9933 4.72484C17.5646 4.72484 21.2617 8.42198 21.2617 12.9933C21.2617 17.5645 17.5646 21.2618 12.9933 21.2618Z" fill="url(#paint0_linear_34_545)"/>
<defs>
<linearGradient id="paint0_linear_34_545" x1="12.9933" y1="0" x2="12.9933" y2="25.9866" gradientUnits="userSpaceOnUse">
<stop stop-color="#FFBF00"/>
<stop offset="1" stop-color="#F2A50C"/>
</linearGradient>
</defs>
</svg>
