<svg width="24" height="20" viewBox="0 0 24 20" fill="none" xmlns="http://www.w3.org/2000/svg">
<path d="M17.7181 15.7455C16.1235 15.7455 15.1195 16.2416 14.2336 16.6905C13.4658 17.0803 12.8397 17.3992 11.8121 17.3992C10.749 17.3992 10.1584 17.1039 9.39061 16.6905C8.50471 16.2416 7.53615 15.7455 5.90604 15.7455C4.27598 15.7455 3.30739 16.2416 2.42148 16.6905C1.91356 16.9503 1.4647 17.1748 0.921342 17.3047C0.389799 17.4228 0 17.8481 0 18.3796V18.4977C0 19.2064 0.661479 19.7143 1.34658 19.5726C2.22067 19.3954 2.88215 19.0647 3.48457 18.7576C4.25235 18.3678 4.86658 18.0488 5.90604 18.0488C6.94551 18.0488 7.55971 18.3442 8.32753 18.7576C9.21343 19.2064 10.182 19.7026 11.8121 19.7026C13.4421 19.7026 14.4108 19.2064 15.2967 18.7576C16.0644 18.3678 16.6905 18.0488 17.7181 18.0488C18.7812 18.0488 19.3719 18.3442 20.1396 18.7576C20.7539 19.0647 21.4153 19.4073 22.3012 19.5845C22.4608 19.6156 22.6253 19.6113 22.783 19.5719C22.9407 19.5325 23.0879 19.4589 23.2141 19.3564C23.3403 19.2539 23.4424 19.1249 23.5133 18.9786C23.5842 18.8322 23.622 18.6722 23.6242 18.5095V18.4032C23.6242 17.8599 23.2225 17.4346 22.691 17.3165C22.1477 17.1984 21.7106 16.974 21.2027 16.7023C20.3168 16.2416 19.3128 15.7455 17.7181 15.7455ZM17.7181 10.4891C16.1235 10.4891 15.1195 10.997 14.2336 11.4341C13.4658 11.8121 12.8397 12.1429 11.8121 12.1429C10.749 12.1429 10.1584 11.8475 9.39061 11.4341C8.50471 10.9852 7.53615 10.4891 5.90604 10.4891C4.27598 10.4891 3.30739 10.997 2.42148 11.4341C1.91356 11.6822 1.4647 11.9184 0.909533 12.0483C0.389799 12.1664 0 12.5917 0 13.1232V13.2414C7.08725e-05 13.4046 0.036526 13.5658 0.106725 13.7132C0.176924 13.8606 0.279096 13.9905 0.405807 14.0934C0.532518 14.1965 0.68058 14.2698 0.839237 14.3084C0.997885 14.3469 1.16313 14.3496 1.32296 14.3162C2.20887 14.1391 2.87034 13.7965 3.48457 13.5012C4.25235 13.0878 4.84296 12.7925 5.90604 12.7925C6.96917 12.7925 7.55971 13.0878 8.32753 13.5012C9.21343 13.9501 10.182 14.4462 11.8121 14.4462C13.4421 14.4462 14.4108 13.9382 15.2967 13.5012C16.0644 13.0878 16.655 12.7925 17.7181 12.7925C18.7812 12.7925 19.3719 13.0878 20.1396 13.5012C20.7539 13.8084 21.4153 14.1508 22.3012 14.328C22.4617 14.3594 22.6272 14.3549 22.7859 14.3147C22.9444 14.2747 23.0922 14.2001 23.2186 14.0963C23.345 13.9924 23.4469 13.862 23.517 13.7142C23.5871 13.5664 23.6237 13.4049 23.6242 13.2414V13.1351C23.6242 12.5916 23.2225 12.1664 22.691 12.0483C22.1477 11.9302 21.7106 11.7057 21.2027 11.4341C20.3168 10.9852 19.3128 10.4891 17.7181 10.4891ZM21.2027 0.944969C20.3168 0.496107 19.3364 0 17.7181 0C16.0998 0 15.1195 0.496107 14.2336 0.944969C13.4658 1.32296 12.8397 1.65369 11.8121 1.65369C10.749 1.65369 10.1584 1.3584 9.39061 0.944969C8.50471 0.507925 7.53615 0 5.90604 0C4.27598 0 3.30739 0.496107 2.42148 0.944969C1.91356 1.20483 1.4647 1.42927 0.921342 1.55919C0.389799 1.67732 0 2.10256 0 2.6341V2.71678C0 3.42551 0.637852 3.94524 1.32296 3.8035C2.20887 3.62631 2.87034 3.28376 3.48457 2.98846C4.25235 2.59866 4.86658 2.27974 5.90604 2.27974C6.94551 2.27974 7.55971 2.57504 8.32753 2.98846C9.21343 3.43732 10.182 3.93342 11.8121 3.93342C13.4421 3.93342 14.4108 3.42551 15.2967 2.98846C16.0644 2.61047 16.6905 2.27974 17.7181 2.27974C18.7812 2.27974 19.3719 2.57504 20.1396 2.98846C20.7539 3.29557 21.4153 3.63812 22.3012 3.81531C22.4617 3.84663 22.6272 3.8421 22.7859 3.80203C22.9444 3.76195 23.0922 3.68734 23.2186 3.58351C23.345 3.47968 23.4469 3.3492 23.517 3.20142C23.5871 3.05362 23.6237 2.89217 23.6242 2.72859V2.62228C23.6242 2.07893 23.2225 1.65369 22.691 1.53558C22.1477 1.41745 21.7106 1.20483 21.2027 0.944969ZM17.7181 5.23278C16.1235 5.23278 15.1195 5.74067 14.2336 6.17769C13.4658 6.59114 12.8751 6.88641 11.8121 6.88641C10.749 6.88641 10.1584 6.59114 9.39061 6.17769C8.50471 5.72889 7.53615 5.23278 5.90604 5.23278C4.27598 5.23278 3.30739 5.74067 2.42148 6.17769C1.91356 6.4494 1.47651 6.6738 0.93316 6.79198C0.401617 6.91007 0 7.3353 0 7.87863V7.98494C7.08725e-05 8.14821 0.036526 8.30944 0.106725 8.45686C0.176924 8.60427 0.279096 8.73415 0.405807 8.83709C0.532518 8.94003 0.68058 9.01348 0.839237 9.05201C0.997885 9.09055 1.16313 9.09321 1.32296 9.0599C2.20887 8.88272 2.87034 8.54014 3.48457 8.24486C4.25235 7.86685 4.87839 7.53614 5.90604 7.53614C6.93373 7.53614 7.55971 7.83141 8.32753 8.24486C9.21343 8.69366 10.182 9.18977 11.8121 9.18977C13.4421 9.18977 14.4108 8.68188 15.2967 8.24486C16.0644 7.86685 16.6905 7.53614 17.7181 7.53614C18.7812 7.53614 19.3719 7.83141 20.1396 8.24486C20.7539 8.55192 21.4153 8.8945 22.3012 9.07168C22.4608 9.10286 22.6253 9.09852 22.783 9.05919C22.9407 9.01976 23.0879 8.94615 23.2141 8.84365C23.3403 8.74115 23.4424 8.61216 23.5133 8.46581C23.5842 8.31946 23.622 8.15937 23.6242 7.99681V7.8905C23.6242 7.34709 23.2225 6.92185 22.691 6.80376C22.1477 6.68567 21.7106 6.46118 21.2027 6.18956C20.3168 5.72889 19.3128 5.23278 17.7181 5.23278Z" fill="url(#paint0_linear_34_539)"/>
<defs>
<linearGradient id="paint0_linear_34_539" x1="11.8121" y1="0" x2="11.8121" y2="19.7026" gradientUnits="userSpaceOnUse">
<stop stop-color="#FFBF00"/>
<stop offset="1" stop-color="#F2A50C"/>
</linearGradient>
</defs>
</svg>
