<svg width="19" height="19" viewBox="0 0 19 19" fill="none" xmlns="http://www.w3.org/2000/svg">
<path d="M2.42163 4.73884C0.875168 6.28554 0.00443765 8.38195 1.69827e-05 10.5692C-0.00441255 12.7564 0.857822 14.8562 2.39801 16.4092C4.13438 12.3931 7.22916 9.0385 11.0917 7.0422C7.75778 9.86319 5.50731 13.7545 4.72497 18.0511C7.79614 19.504 11.576 18.9724 14.1156 16.4328C17.6474 12.901 18.6396 3.27417 18.8522 0.628262C18.8596 0.544189 18.8485 0.459523 18.8196 0.380199C18.7909 0.300884 18.745 0.22886 18.6853 0.169176C18.6256 0.109501 18.5536 0.0636204 18.4742 0.0347841C18.3949 0.00593902 18.3103 -0.00517896 18.2262 0.00222722C15.5803 0.214845 5.95346 1.20706 2.42163 4.73884Z" fill="url(#paint0_linear_34_542)"/>
<defs>
<linearGradient id="paint0_linear_34_542" x1="9.42727" y1="3.57645e-06" x2="9.42727" y2="18.8477" gradientUnits="userSpaceOnUse">
<stop stop-color="#FFBF00"/>
<stop offset="1" stop-color="#F2A50C"/>
</linearGradient>
</defs>
</svg>
