<svg width="17" height="17" viewBox="0 0 17 17" fill="none" xmlns="http://www.w3.org/2000/svg">
<path d="M8.66308 0C4.08008 0 0.330078 3.75 0.330078 8.333C0.330078 12.916 4.08008 16.666 8.66308 16.666C13.2461 16.666 16.9961 12.916 16.9961 8.333C16.9961 3.75 13.2461 0 8.66308 0ZM11.6211 11.5L8.22108 9.40801C8.09867 9.33491 7.99741 9.23111 7.92727 9.10701C7.85713 8.98281 7.82053 8.84261 7.82108 8.70001V4.791C7.82547 4.62507 7.89395 4.46729 8.01215 4.35076C8.13036 4.23423 8.28911 4.16801 8.45508 4.166C8.62044 4.16731 8.77869 4.23358 8.89559 4.35051C9.01249 4.46743 9.07879 4.62565 9.08009 4.791V8.49901L12.2801 10.424C12.5801 10.608 12.6801 10.999 12.4961 11.3C12.4056 11.4414 12.2632 11.5417 12.0995 11.5791C11.9358 11.6165 11.764 11.5881 11.6211 11.5Z" fill="url(#paint0_linear_45_312)"/>
<defs>
<linearGradient id="paint0_linear_45_312" x1="8.66308" y1="0" x2="8.66308" y2="16.666" gradientUnits="userSpaceOnUse">
<stop stop-color="#FFBF00"/>
<stop offset="1" stop-color="#F2A50C"/>
</linearGradient>
</defs>
</svg>
