<svg width="24" height="19" viewBox="0 0 24 19" fill="none" xmlns="http://www.w3.org/2000/svg">
<path d="M20.625 7.11001C20.5084 7.28223 20.4394 7.48217 20.425 7.68957C20.4104 7.89696 20.4509 8.10452 20.5423 8.29127C20.8352 8.97519 21.0419 9.69331 21.1566 10.4292C21.4606 12.3312 21.1762 14.2805 20.3415 16.0164C20.2401 16.2068 20.0885 16.3658 19.9033 16.4761C19.7179 16.5865 19.5059 16.644 19.2902 16.6424H4.34793C4.13103 16.6428 3.91819 16.5835 3.73275 16.471C3.54731 16.3585 3.39643 16.1971 3.29665 16.0045C2.54054 14.4706 2.21484 12.7603 2.35427 11.0559C2.4937 9.35153 3.09305 7.71685 4.0884 6.32633C5.08376 4.93573 6.43782 3.8413 8.00625 3.15971C9.57466 2.47813 11.2986 2.23495 12.9943 2.45607C13.8523 2.55693 14.6917 2.77966 15.4868 3.11755C15.6735 3.20894 15.8811 3.24943 16.0885 3.23491C16.2959 3.22039 16.4957 3.15139 16.6679 3.03487C16.8473 2.91668 16.9911 2.75181 17.0838 2.55799C17.1764 2.36417 17.2145 2.14875 17.1938 1.93491C17.1732 1.72107 17.0946 1.51692 16.9666 1.34442C16.8385 1.17192 16.6658 1.03761 16.4671 0.955943C14.1853 -0.022505 11.6531 -0.257058 9.23031 0.285604C6.80762 0.828266 4.61741 2.12055 2.97094 3.97887C1.32448 5.83722 0.305426 8.16707 0.0585506 10.6376C-0.188325 13.108 0.349535 15.5935 1.59571 17.7409C1.80185 18.098 2.09784 18.3949 2.45425 18.6021C2.81067 18.8093 3.21512 18.9197 3.6274 18.9221H19.9872C20.4034 18.9237 20.8127 18.8154 21.1737 18.608C21.5346 18.4005 21.8343 18.1014 22.0425 17.7409C22.9548 16.1598 23.4883 14.3887 23.6009 12.5667C23.7137 10.7448 23.4026 8.92151 22.6921 7.23997C22.6021 7.04835 22.4623 6.88437 22.2872 6.7653C22.1122 6.64623 21.9083 6.57642 21.697 6.56314C21.4857 6.54985 21.2747 6.59361 21.0861 6.68982C20.8975 6.78603 20.7382 6.93114 20.625 7.11001Z" fill="url(#paint0_linear_34_554)"/>
<defs>
<linearGradient id="paint0_linear_34_554" x1="11.8118" y1="5.87002e-06" x2="11.8118" y2="18.9221" gradientUnits="userSpaceOnUse">
<stop stop-color="#FFBF00"/>
<stop offset="1" stop-color="#F2A50C"/>
</linearGradient>
</defs>
</svg>
