<svg width="134" height="36" viewBox="0 0 134 36" fill="none" xmlns="http://www.w3.org/2000/svg">
<path d="M5.04 14.6935C5.688 13.5183 6.576 12.5636 7.704 11.8291C8.856 11.0947 10.164 10.7275 11.628 10.7275C13.332 10.7275 14.868 11.2416 16.236 12.2698C17.628 13.298 18.72 14.7669 19.512 16.6764C20.328 18.5566 20.736 20.7453 20.736 23.2424C20.736 25.7395 20.328 27.9575 19.512 29.8964C18.72 31.8059 17.628 33.2895 16.236 34.3471C14.868 35.4047 13.332 35.9335 11.628 35.9335C10.14 35.9335 8.832 35.581 7.704 34.8759C6.6 34.1415 5.712 33.2014 5.04 32.0557V35.5369H0V2.9277H5.04V14.6935ZM15.588 23.2424C15.588 21.7735 15.336 20.5102 14.832 19.4526C14.352 18.3657 13.704 17.5431 12.888 16.9849C12.1004 16.4281 11.2055 16.1391 10.296 16.1476C9.384 16.1476 8.52 16.4414 7.704 17.029C6.912 17.5872 6.264 18.4097 5.76 19.4967C5.28 20.5837 5.04 21.8616 5.04 23.3305C5.04 24.7994 5.28 26.0773 5.76 27.1643C6.264 28.2512 6.912 29.0885 7.704 29.6761C8.52 30.2342 9.384 30.5133 10.296 30.5133C11.232 30.5133 12.096 30.2195 12.888 29.632C13.704 29.0444 14.352 28.2072 14.832 27.1202C15.336 26.0332 15.588 24.7406 15.588 23.2424ZM26.954 8.21568C26.066 8.21568 25.322 7.87783 24.722 7.20215C24.146 6.49708 23.858 5.63044 23.858 4.60222C23.858 3.574 24.146 2.72205 24.722 2.04637C25.322 1.3413 26.066 0.98877 26.954 0.98877C27.842 0.98877 28.574 1.3413 29.15 2.04637C29.75 2.72205 30.05 3.574 30.05 4.60222C30.05 5.63044 29.75 6.49708 29.15 7.20215C28.574 7.87783 27.842 8.21568 26.954 8.21568ZM29.438 11.1241V35.5369H24.398V11.1241H29.438ZM46.226 35.5369L39.458 25.1372V35.5369H34.418V2.9277H39.458V21.4797L46.154 11.1241H52.706L43.922 23.3746L52.778 35.5369H46.226ZM53.145 23.3305C53.145 20.804 53.565 18.6007 54.405 16.7205C55.245 14.811 56.409 13.3421 57.897 12.3139C59.385 11.2563 61.089 10.7275 63.009 10.7275C65.481 10.7275 67.521 11.4913 69.129 13.0189C70.761 14.5172 71.853 16.6324 72.405 19.3645H66.97C66.682 18.3069 66.19 17.4843 65.494 16.8968C64.822 16.2798 63.982 15.9714 62.974 15.9714C61.534 15.9714 60.394 16.6177 59.554 17.9103C58.714 19.1735 58.294 20.9803 58.294 23.3305C58.294 25.6513 58.714 27.458 59.554 28.7507C60.394 30.0139 61.534 30.6455 62.974 30.6455C65.014 30.6455 66.346 29.5292 66.97 27.2965H72.406C71.854 29.9405 70.762 32.041 69.13 33.598C67.498 35.155 65.458 35.9335 63.01 35.9335C61.09 35.9335 59.386 35.4194 57.898 34.3912C56.4218 33.3485 55.2125 31.8225 54.406 29.9845C53.566 28.075 53.145 25.857 53.145 23.3305ZM80.138 14.9138C80.756 13.6573 81.6227 12.6116 82.658 11.8732C83.714 11.1388 84.914 10.7715 86.258 10.7715V17.2493H84.926C83.342 17.2493 82.142 17.7047 81.326 18.6154C80.534 19.5261 80.138 21.1125 80.138 23.3746V35.5369H75.098V11.1241H80.138V14.9138ZM101.712 32.0557C101.16 33.172 100.26 34.1121 99.012 34.8759C97.764 35.6104 96.42 35.9776 94.98 35.9776C93.732 35.9776 92.604 35.6691 91.596 35.0522C90.588 34.4352 89.796 33.5833 89.22 32.4963C88.644 31.4093 88.356 30.1608 88.356 28.7507C88.356 26.4886 89.04 24.6378 90.408 23.1983C91.8 21.7588 93.876 21.039 96.636 21.039H101.712C101.664 19.482 101.292 18.2481 100.596 17.3374C99.924 16.3974 98.988 15.9273 97.788 15.9273C96.732 15.9273 95.856 16.2798 95.16 16.9849C94.464 17.6606 94.02 18.6154 93.828 19.8492H88.788C89.028 18.0866 89.544 16.5149 90.336 15.1341C91.1449 13.7313 92.2362 12.608 93.504 11.8732C94.824 11.08 96.3 10.6834 97.932 10.6834C99.612 10.6834 101.124 11.1094 102.468 11.9613C103.803 12.7752 104.916 14.0458 105.672 15.6188C106.44 17.2052 106.824 19.0707 106.824 21.2153V35.5369H101.712V32.0557ZM96.456 30.9981C97.296 30.9981 98.112 30.7777 98.904 30.3371C99.72 29.8964 100.392 29.2354 100.92 28.3541C101.448 27.4727 101.712 26.4298 101.712 25.2253V25.0491H96.924C95.772 25.0491 94.908 25.3282 94.332 25.8863C93.78 26.4445 93.504 27.179 93.504 28.0897C93.504 28.971 93.756 29.6761 94.26 30.2049C94.788 30.7337 95.52 30.9981 96.456 30.9981ZM117.453 16.1917V35.5369H112.341V16.1917H110.073V11.1241H112.341V9.8902C112.341 6.89368 113.037 4.69036 114.429 3.28023C115.821 1.8701 117.921 1.2091 120.729 1.29724V6.49708C119.505 6.4677 118.653 6.71741 118.173 7.24621C117.693 7.77501 117.453 8.72978 117.453 10.1105V11.1241H124.003V5.08695H129.079V11.1241H133.543V16.1917H129.079V28.0015C129.079 28.8241 129.235 29.4264 129.547 29.8083C129.883 30.1608 130.435 30.3371 131.203 30.3371H133.543V35.5369H130.375C126.127 35.5369 124.003 33.0104 124.003 27.9575V16.1917H117.453Z" fill="white"/>
</svg>
