<svg width="32" height="32" viewBox="0 0 32 32" fill="none" xmlns="http://www.w3.org/2000/svg">
<g clip-path="url(#clip0_71_158)">
<circle cx="16" cy="16" r="16" fill="white"/>
<path d="M23.5833 11.75H22.695L20.8533 4.145C20.7009 3.51793 20.4239 2.97606 20.0597 2.59251C19.6955 2.20895 19.2616 2.00216 18.8167 2H17.0833C16.4875 2 16 2.73125 16 3.62501C16 4.51875 16.4875 5.25 17.0833 5.25H18.8167L20.3983 11.75H15.1875L14.7975 10.125H14.895C15.4908 10.125 15.9783 9.39375 15.9783 8.50001C15.9783 7.60625 15.4908 6.875 14.895 6.875H11.6667C11.0708 6.875 10.5833 7.60625 10.5833 8.50001C10.5833 9.39375 11.0708 10.125 11.6667 10.125H12.4792L14.4508 18.25H13.725C13.2483 14.6263 11.2225 11.945 8.6875 11.7663C5.65417 11.5388 3 15.325 3 19.875C3 24.425 5.38333 28 8.41667 28C11.0817 28 13.2375 25.2538 13.725 21.5H18.275C18.7517 25.1237 20.7775 27.805 23.3125 27.9838C26.3458 28.195 29 24.425 29 19.8587C29 15.325 26.6167 11.75 23.5833 11.75ZM9.5 21.5H11.4717C11.0167 23.4988 9.73833 24.88 8.2 24.7338C6.58583 24.5875 5.2425 22.54 5.16667 20.1025C5.09083 17.2588 6.5425 15 8.41667 15C9.8575 15 11.0383 16.3487 11.4717 18.25H9.5C8.90417 18.25 8.41667 18.9812 8.41667 19.875C8.41667 20.7688 8.90417 21.5 9.5 21.5ZM18.275 18.25H16.7583L15.9675 15H19.25C18.7733 15.9425 18.4267 17.0312 18.275 18.25ZM23.4533 24.75C21.785 24.6525 20.3767 22.5238 20.3333 20.005C20.3117 18.445 20.7558 17.08 21.4708 16.17L22.1425 18.9325C22.3483 19.7775 22.9658 20.2162 23.5292 19.9075C24.0925 19.5988 24.385 18.6725 24.1792 17.8275L23.4967 15.0163L23.5075 15C23.9419 14.9778 24.3747 15.0878 24.7799 15.3235C25.1851 15.5591 25.5543 15.9156 25.865 16.3712C26.1759 16.8269 26.4219 17.3721 26.5884 17.9744C26.7548 18.5766 26.8381 19.2232 26.8333 19.875C26.8333 22.67 25.3383 24.8475 23.4533 24.75Z" fill="url(#paint0_linear_71_158)"/>
</g>
<defs>
<linearGradient id="paint0_linear_71_158" x1="16" y1="2" x2="16" y2="37.75" gradientUnits="userSpaceOnUse">
<stop stop-color="#FFB60D"/>
<stop offset="1" stop-color="#E59317"/>
</linearGradient>
<clipPath id="clip0_71_158">
<rect width="32" height="32" fill="white"/>
</clipPath>
</defs>
</svg>
